<svg width="45" height="45" viewBox="0 0 45 45" fill="none" xmlns="http://www.w3.org/2000/svg">
<g clip-path="url(#clip0)">
<path d="M17.1258 16.8547V8.3729C17.1258 3.75601 13.3697 0 8.75294 0C4.13613 0 0.379951 3.75601 0.379951 8.3729V16.8547C0.138428 17.2844 0 17.7794 0 18.3065V24.0636C0 24.549 0.393486 24.9425 0.878906 24.9425H16.6269C17.1122 24.9425 17.5058 24.5489 17.5058 24.0636V18.3065C17.5058 17.7794 17.3674 17.2844 17.1258 16.8547ZM2.13776 8.3729C2.13776 4.72535 5.1053 1.75781 8.75294 1.75781C12.4005 1.75781 15.368 4.72535 15.368 8.3729V15.4535C15.3672 15.4533 15.3664 15.4531 15.3656 15.4529C15.3005 15.4339 15.2346 15.4169 15.1677 15.4023C15.1661 15.402 15.1646 15.4015 15.1629 15.4012C15.0964 15.3867 15.0292 15.3744 14.9612 15.3646C14.9557 15.3638 14.9503 15.3633 14.9448 15.3625C14.8875 15.3545 14.8296 15.3483 14.7713 15.3437C14.7562 15.3425 14.7411 15.3412 14.7259 15.3402C14.6619 15.336 14.5976 15.3332 14.5326 15.3332H11.7282C11.6227 15.2338 11.5218 15.082 11.4664 14.8336C11.7858 14.6091 12.094 14.3558 12.38 14.0868C12.9234 13.5758 13.385 13.0069 13.6796 12.4632L13.7116 12.4041C14.1144 11.6631 14.3816 11.0437 14.4233 9.25734C14.4315 8.90675 14.2305 8.5848 13.9119 8.43829C12.7387 7.89891 10.5079 5.40923 9.5233 4.1857C9.49518 4.15072 9.46767 4.11645 9.44165 4.08357C9.27492 3.87343 9.02145 3.751 8.7532 3.751C8.75312 3.751 8.75312 3.751 8.75312 3.751C8.48487 3.751 8.23131 3.87352 8.06467 4.08349C7.12705 5.26474 4.80085 7.88344 3.59411 8.43829C3.27551 8.5848 3.0745 8.90675 3.08268 9.25734C3.12434 11.0435 3.39144 11.6629 3.79415 12.4039L3.82632 12.4632C4.13227 13.0281 4.6183 13.6206 5.18959 14.1467C5.19513 14.1518 5.20049 14.1571 5.20603 14.1622C5.23072 14.1848 5.25603 14.2068 5.281 14.2291C5.3093 14.2545 5.33733 14.2801 5.36599 14.3051C5.37091 14.3094 5.37601 14.3135 5.38102 14.3178C5.43015 14.3604 5.47963 14.4025 5.52973 14.444C5.53465 14.4482 5.53975 14.452 5.54467 14.4561C5.70542 14.5884 5.87074 14.7148 6.03914 14.8332C6.03606 14.8467 6.03237 14.8589 6.02903 14.8718C6.0242 14.891 6.01928 14.9101 6.01392 14.928C6.00645 14.9526 5.99854 14.9761 5.9901 14.9985C5.98931 15.0006 5.98852 15.0028 5.98772 15.0049C5.93024 15.1558 5.85299 15.2592 5.77318 15.3332H2.97325C2.90821 15.3332 2.84396 15.336 2.77989 15.3402C2.76469 15.3411 2.74957 15.3425 2.73445 15.3437C2.67618 15.3483 2.61826 15.3545 2.56096 15.3625C2.55551 15.3633 2.55006 15.3638 2.54461 15.3646C2.47658 15.3744 2.40935 15.3867 2.3429 15.4012C2.34132 15.4015 2.33965 15.402 2.33807 15.4023C2.27127 15.4169 2.20535 15.4339 2.14022 15.4529C2.13943 15.4532 2.13855 15.4534 2.13776 15.4535V8.3729ZM7.41146 13.6292C6.5838 13.1382 5.74532 12.3146 5.37249 11.6263L5.33909 11.5646C5.3238 11.5375 5.30938 11.5109 5.29515 11.4846C5.08201 11.089 4.92188 10.7387 4.86105 9.7389C5.92638 9.05599 7.17601 7.78087 8.10141 6.75097C8.34372 6.48132 8.56406 6.22828 8.75276 6.00732C9.6619 7.07212 11.3 8.87695 12.6446 9.73898C12.5959 10.5389 12.4836 10.923 12.3316 11.2472C12.2809 11.3552 12.2258 11.4566 12.1671 11.5646L12.1337 11.626C11.7608 12.3145 10.9223 13.1382 10.0949 13.6291C9.82802 13.7875 9.66445 14.0747 9.66445 14.385C9.66445 14.4705 9.66735 14.5528 9.6721 14.6333C9.67412 14.669 9.67764 14.7031 9.68054 14.738C9.68405 14.779 9.68748 14.8199 9.69214 14.8596C9.69741 14.9054 9.70383 14.9499 9.71051 14.9941C9.71402 15.0167 9.71763 15.0392 9.72149 15.0615C9.73081 15.1155 9.74101 15.1685 9.75252 15.22C9.75296 15.2219 9.7534 15.2236 9.75384 15.2255C9.87249 15.7543 10.0985 16.1502 10.3604 16.445C10.371 16.4571 10.3816 16.4688 10.3922 16.4805C10.4096 16.4994 10.4269 16.5183 10.4446 16.5363C10.5051 16.5987 10.5657 16.655 10.6247 16.7048C10.6326 16.7115 10.6408 16.717 10.6487 16.7235C10.6905 16.7578 10.7324 16.7903 10.7743 16.8206C10.8045 16.8425 10.8351 16.8628 10.8657 16.8831C10.8838 16.8951 10.9019 16.9069 10.92 16.9182C11.0393 16.9935 11.1613 17.0576 11.2845 17.1119C11.5599 17.2332 11.8397 17.3079 12.1013 17.3499C12.095 17.3611 12.0879 17.3718 12.0814 17.3828C12.0685 17.4047 12.0558 17.4268 12.042 17.448C12.0324 17.4628 12.0219 17.4769 12.0117 17.4914C11.9999 17.5084 11.9885 17.5257 11.9762 17.5424C11.9623 17.5609 11.9474 17.5787 11.9328 17.5967C11.9233 17.6084 11.9144 17.6206 11.9045 17.632C11.8862 17.6534 11.867 17.6739 11.8477 17.6944C11.8407 17.7018 11.8342 17.7096 11.8272 17.7168C11.8042 17.7405 11.7802 17.7632 11.7559 17.7856C11.752 17.7892 11.7485 17.793 11.7446 17.7965C11.7187 17.8199 11.6921 17.8422 11.6649 17.864C11.6622 17.8662 11.6597 17.8687 11.6568 17.8708C11.6269 17.8945 11.5962 17.9173 11.5646 17.9391C11.5646 17.9392 11.5645 17.9392 11.5644 17.9393C11.4383 18.0265 11.3004 18.0977 11.1537 18.15C11.1532 18.1502 11.1528 18.1504 11.1524 18.1506C11.116 18.1635 11.079 18.1753 11.0416 18.1858C11.0412 18.1859 11.0407 18.1861 11.0403 18.1862C10.9654 18.2073 10.8885 18.2234 10.8099 18.2344C10.809 18.2346 10.8081 18.2348 10.8071 18.2349C10.7793 18.2388 10.751 18.2412 10.7227 18.2437C10.7105 18.2448 10.6987 18.2466 10.6865 18.2475C10.646 18.2503 10.6051 18.2517 10.5639 18.2517H6.90662C6.86549 18.2517 6.82462 18.2503 6.78419 18.2475C6.7747 18.2469 6.76556 18.2454 6.75615 18.2446C6.7253 18.242 6.69445 18.2392 6.66413 18.2351C6.6491 18.233 6.63442 18.2298 6.61957 18.2274C6.59514 18.2233 6.57053 18.2197 6.54645 18.2147C6.53432 18.2122 6.52263 18.2087 6.51059 18.2059C6.48413 18.1998 6.45759 18.1939 6.43157 18.1867C6.41593 18.1823 6.40072 18.1768 6.38534 18.172C6.36346 18.1652 6.34131 18.1588 6.31978 18.1512C6.30343 18.1454 6.2877 18.1385 6.27161 18.1323C6.25148 18.1245 6.23109 18.1172 6.21132 18.1086C6.1955 18.1018 6.1802 18.094 6.16465 18.0867C6.14522 18.0776 6.12554 18.069 6.10646 18.0592C6.09091 18.0512 6.07588 18.0423 6.06059 18.0338C6.04222 18.0237 6.0235 18.0141 6.00557 18.0033C5.98939 17.9937 5.97401 17.983 5.95819 17.9729C5.94167 17.9624 5.92488 17.9523 5.9088 17.9411C5.89307 17.9303 5.87813 17.9184 5.86283 17.9072C5.84736 17.8958 5.83154 17.8848 5.81643 17.8729C5.80034 17.8603 5.78514 17.8465 5.76949 17.8334C5.75596 17.8218 5.74198 17.8109 5.72889 17.799C5.71307 17.7848 5.69812 17.7696 5.68274 17.7547C5.67062 17.7429 5.65796 17.7317 5.64618 17.7195C5.63071 17.7036 5.61612 17.6868 5.60118 17.6704C5.59046 17.6585 5.5793 17.6472 5.56884 17.6351C5.55372 17.6174 5.53957 17.5989 5.52516 17.5807C5.51584 17.5689 5.50608 17.5576 5.49712 17.5457C5.48271 17.5264 5.46935 17.5065 5.45572 17.4866C5.44764 17.4749 5.43902 17.4635 5.4312 17.4517C5.41758 17.4307 5.40501 17.4091 5.39227 17.3877C5.3855 17.3763 5.3782 17.3653 5.3717 17.3538C5.8594 17.2784 6.41145 17.0976 6.88087 16.7015C6.93888 16.6525 6.99829 16.5974 7.05788 16.5364C7.0766 16.5173 7.09497 16.4972 7.11343 16.4772C7.12327 16.4664 7.13312 16.4558 7.14296 16.4446C7.40689 16.1487 7.63444 15.7514 7.75327 15.2203C7.75327 15.2202 7.75336 15.22 7.75336 15.2199C7.76496 15.168 7.77524 15.1146 7.78474 15.06C7.7886 15.0382 7.79212 15.0161 7.79563 14.994C7.8024 14.9497 7.80882 14.905 7.81418 14.8591C7.81884 14.8196 7.82227 14.7789 7.82578 14.7381C7.82868 14.7032 7.8322 14.6689 7.83431 14.6331C7.83905 14.5528 7.84195 14.4705 7.84195 14.3851C7.84195 14.0748 7.6783 13.7874 7.41146 13.6292ZM15.7482 23.1847H15.748H1.75781V18.3065C1.75781 18.036 1.84764 17.7869 1.99767 17.5847C2.01639 17.5595 2.03572 17.5349 2.05611 17.5114C2.06666 17.4993 2.07756 17.4875 2.08854 17.4757C2.10964 17.4533 2.13161 17.4318 2.1542 17.411C2.16448 17.4016 2.1745 17.392 2.18514 17.3829C2.21757 17.3552 2.25105 17.329 2.28604 17.305C2.28718 17.3042 2.28832 17.3032 2.28946 17.3024C2.32787 17.2762 2.36777 17.2526 2.40882 17.231C2.41479 17.2278 2.42104 17.2252 2.42701 17.2222C2.46138 17.2049 2.49645 17.189 2.5323 17.1751C2.54259 17.171 2.55305 17.1674 2.56342 17.1636C2.59594 17.1519 2.62898 17.1417 2.66247 17.1328C2.67442 17.1296 2.68629 17.1264 2.69842 17.1236C2.73199 17.1157 2.76609 17.1098 2.80046 17.1047C2.81215 17.1031 2.82357 17.1008 2.83526 17.0994C2.88088 17.0941 2.92693 17.0909 2.97334 17.0909H3.43811C3.4418 17.1122 3.44646 17.1331 3.4505 17.1542C3.45463 17.1758 3.45867 17.1976 3.46324 17.219C3.47062 17.2538 3.47889 17.2883 3.48724 17.3227C3.49198 17.3421 3.49638 17.3616 3.50139 17.3808C3.51176 17.4205 3.52318 17.4596 3.53496 17.4988C3.539 17.5124 3.54261 17.5262 3.54683 17.5396C3.56326 17.5921 3.58084 17.644 3.59965 17.6954C3.60343 17.7057 3.60773 17.7159 3.61169 17.7262C3.62698 17.7669 3.64271 17.8073 3.6595 17.8472C3.66697 17.8652 3.67515 17.8827 3.68297 17.9004C3.69703 17.9324 3.71118 17.9644 3.72621 17.996C3.73553 18.0155 3.74528 18.0347 3.75495 18.0541C3.76954 18.0832 3.78422 18.1123 3.79951 18.141C3.81015 18.1608 3.82104 18.1805 3.83203 18.2001C3.8475 18.2279 3.86332 18.2554 3.87958 18.2827C3.89118 18.3022 3.90287 18.3215 3.91482 18.3408C3.93152 18.3676 3.94866 18.3943 3.96615 18.4206C3.97846 18.4394 3.99076 18.4581 4.00351 18.4765C4.02187 18.5033 4.04086 18.5296 4.05993 18.5558C4.0725 18.5731 4.08489 18.5905 4.09772 18.6076C4.11891 18.6356 4.14079 18.663 4.16285 18.6904C4.17445 18.7049 4.18579 18.7196 4.19766 18.7339C4.22903 18.7717 4.26129 18.8089 4.29416 18.8453C4.29715 18.8486 4.29987 18.852 4.30286 18.8553C4.33881 18.8947 4.37572 18.9333 4.41334 18.9711C4.426 18.9838 4.43918 18.9961 4.4521 19.0086C4.47759 19.0335 4.50316 19.0582 4.52936 19.0823C4.54509 19.0967 4.56126 19.1107 4.57726 19.1248C4.60143 19.1463 4.62568 19.1675 4.65047 19.1883C4.6677 19.2027 4.68527 19.2168 4.70285 19.2309C4.7272 19.2505 4.75172 19.2699 4.77668 19.2889C4.79496 19.3029 4.81342 19.3165 4.83196 19.3301C4.85701 19.3485 4.88224 19.3664 4.90781 19.3841C4.92671 19.3972 4.94569 19.4102 4.96485 19.4229C4.99113 19.4404 5.01776 19.4573 5.04457 19.4741C5.06355 19.486 5.08236 19.4979 5.10161 19.5094C5.13018 19.5266 5.15927 19.543 5.18836 19.5594C5.20629 19.5695 5.22404 19.5798 5.24215 19.5896C5.27669 19.6082 5.31167 19.6258 5.34683 19.6433C5.3601 19.6499 5.37319 19.657 5.38655 19.6634C5.43516 19.6868 5.48438 19.7091 5.53412 19.7302C5.54678 19.7356 5.55979 19.7403 5.57253 19.7456C5.61006 19.7611 5.64776 19.7762 5.68591 19.7904C5.70498 19.7975 5.7244 19.8039 5.74356 19.8106C5.776 19.8221 5.80843 19.8333 5.84121 19.8438C5.86248 19.8505 5.88401 19.8568 5.90546 19.8631C5.93684 19.8724 5.9683 19.8816 6.00012 19.89C6.02244 19.896 6.04494 19.9015 6.06753 19.9071C6.09899 19.9148 6.13055 19.9221 6.16228 19.9289C6.18521 19.9339 6.20824 19.9387 6.23127 19.9432C6.26344 19.9495 6.29578 19.9551 6.3283 19.9606C6.35115 19.9644 6.374 19.9682 6.39703 19.9716C6.43078 19.9765 6.4648 19.9806 6.49881 19.9846C6.52087 19.9871 6.54284 19.9899 6.56499 19.9921C6.60252 19.9957 6.6404 19.9984 6.67828 20.0007C6.69718 20.002 6.71599 20.0037 6.73497 20.0046C6.79192 20.0073 6.84923 20.009 6.90688 20.009H10.5641C10.6218 20.009 10.6791 20.0074 10.736 20.0046C10.755 20.0037 10.7738 20.002 10.7927 20.0007C10.8306 19.9983 10.8685 19.9957 10.906 19.9921C10.9281 19.99 10.9501 19.9871 10.9722 19.9846C11.0062 19.9806 11.0402 19.9765 11.074 19.9716C11.097 19.9682 11.1198 19.9644 11.1427 19.9606C11.1751 19.9552 11.2075 19.9495 11.2396 19.9432C11.2627 19.9387 11.2857 19.9339 11.3086 19.9289C11.3404 19.9221 11.3719 19.9147 11.4034 19.9071C11.4259 19.9015 11.4484 19.8959 11.4708 19.89C11.5025 19.8815 11.5341 19.8724 11.5654 19.8631C11.5869 19.8568 11.6084 19.8505 11.6297 19.8438C11.6626 19.8333 11.6949 19.8221 11.7273 19.8106C11.7466 19.8039 11.7659 19.7975 11.785 19.7904C11.8231 19.7763 11.8608 19.7611 11.8984 19.7456C11.9111 19.7403 11.9241 19.7356 11.9368 19.7302C11.9865 19.709 12.0357 19.6867 12.0843 19.6634C12.0977 19.657 12.1108 19.6499 12.1241 19.6433C12.1592 19.6258 12.1943 19.6082 12.2288 19.5896C12.2469 19.5798 12.2646 19.5695 12.2825 19.5594C12.3116 19.543 12.3407 19.5266 12.3693 19.5094C12.3884 19.4979 12.4073 19.486 12.4263 19.4741C12.4531 19.4573 12.4798 19.4404 12.506 19.4229C12.5252 19.4102 12.5442 19.3972 12.5631 19.3841C12.5886 19.3664 12.6139 19.3485 12.6389 19.3301C12.6575 19.3165 12.6759 19.3028 12.6942 19.2889C12.7192 19.2699 12.7437 19.2505 12.768 19.2309C12.7856 19.2168 12.8031 19.2027 12.8204 19.1883C12.8452 19.1675 12.8695 19.1462 12.8936 19.1248C12.9096 19.1107 12.9258 19.0967 12.9415 19.0823C12.9677 19.0582 12.9933 19.0334 13.0188 19.0086C13.0316 18.9961 13.0449 18.9838 13.0576 18.9711C13.0952 18.9333 13.1321 18.8947 13.168 18.8553C13.171 18.852 13.1737 18.8486 13.1767 18.8453C13.2096 18.8089 13.2419 18.7718 13.2732 18.7339C13.2851 18.7196 13.2964 18.7049 13.308 18.6904C13.33 18.663 13.352 18.6356 13.3732 18.6076C13.386 18.5905 13.3984 18.5731 13.411 18.5558C13.43 18.5296 13.449 18.5033 13.4674 18.4765C13.48 18.4581 13.4924 18.4394 13.5047 18.4206C13.5221 18.3942 13.5393 18.3676 13.5561 18.3408C13.568 18.3215 13.5798 18.3022 13.5913 18.2827C13.6076 18.2554 13.6233 18.2279 13.6388 18.2001C13.6498 18.1805 13.6607 18.1608 13.6713 18.141C13.6866 18.1122 13.7014 18.0832 13.7159 18.0541C13.7255 18.0347 13.7353 18.0155 13.7446 17.996C13.7596 17.9644 13.7738 17.9325 13.7878 17.9004C13.7957 17.8827 13.8038 17.8651 13.8113 17.8472C13.8281 17.8073 13.8438 17.7668 13.8591 17.7262C13.863 17.7158 13.8674 17.7057 13.8712 17.6954C13.89 17.644 13.9075 17.5921 13.924 17.5396C13.9282 17.5261 13.9318 17.5123 13.9359 17.4988C13.9475 17.4596 13.9591 17.4205 13.9694 17.3808C13.9744 17.3616 13.9788 17.3421 13.9836 17.3227C13.9919 17.2883 14.0002 17.2538 14.0076 17.219C14.0121 17.1975 14.0161 17.1758 14.0203 17.1542C14.0244 17.1331 14.029 17.1122 14.0327 17.0909H14.5327C14.5791 17.0909 14.6252 17.0941 14.6707 17.0994C14.6826 17.1007 14.6941 17.1031 14.7059 17.1047C14.74 17.1098 14.7741 17.1156 14.8075 17.1235C14.8198 17.1263 14.8319 17.1296 14.844 17.1329C14.8772 17.1417 14.9099 17.1519 14.9422 17.1635C14.9529 17.1673 14.9636 17.1711 14.9743 17.1752C15.0094 17.189 15.0439 17.2045 15.0776 17.2216C15.0843 17.2249 15.0912 17.2278 15.0978 17.2312C15.1385 17.2527 15.1781 17.2761 15.2162 17.3021C15.2185 17.3036 15.2206 17.3056 15.223 17.3072C15.2567 17.3305 15.2891 17.3558 15.3204 17.3824C15.3316 17.3919 15.3421 17.402 15.3529 17.4119C15.375 17.4321 15.3965 17.4532 15.4172 17.4751C15.4284 17.4871 15.4395 17.4991 15.4502 17.5115C15.4706 17.535 15.4899 17.5596 15.5086 17.5847C15.6584 17.7868 15.7482 18.0359 15.7482 18.3063V23.1847Z" fill="url(#paint0_linear)"/>
<path d="M42.0268 16.1599H39.0869L39.0862 15.8994C41.1721 14.8396 42.4895 12.7184 42.4895 10.3395V8.44875C42.9412 7.11888 43.4664 4.54245 41.8022 2.42218H41.8023C40.8452 1.20278 39.6889 0.659268 38.6137 0.892969C37.7488 0.292852 36.736 0 35.5337 0C31.7924 0 29.5567 2.87455 29.5567 5.65365C29.5567 7.77735 29.8927 9.25945 30.005 9.69548V10.3396C30.005 12.7184 31.3223 14.8397 33.4083 15.8995L33.4076 16.16H30.4676C28.8282 16.16 27.4944 17.4938 27.4944 19.1333V24.0637C27.4944 24.549 27.888 24.9426 28.3733 24.9426H44.1212C44.6065 24.9426 45.0001 24.549 45.0001 24.0637V19.1333C45.0001 17.4937 43.6663 16.1599 42.0268 16.1599ZM31.7047 7.02677C31.6704 7.05313 31.6368 7.07977 31.6037 7.10684C31.5857 7.12151 31.5679 7.13628 31.5502 7.15122C31.5169 7.17935 31.4844 7.20773 31.4525 7.23639C31.4372 7.25001 31.4218 7.26346 31.4068 7.27726C31.4014 7.28227 31.3955 7.28719 31.39 7.29229C31.3453 6.81363 31.3146 6.263 31.3146 5.65365C31.3146 4.03603 32.6236 1.75781 35.5337 1.75781C36.8115 1.75781 37.4835 2.20588 37.8778 2.54285C38.1436 2.77014 38.5189 2.81821 38.8335 2.66502C39.2457 2.46401 39.8539 2.78684 40.4193 3.50745C40.4194 3.50745 40.4194 3.50745 40.4194 3.50745C41.313 4.64599 41.2619 6.06393 41.0377 7.10367C41.0282 7.09383 41.0178 7.08355 41.0082 7.07361C40.9802 7.04487 40.9519 7.01596 40.9228 6.98669C40.9058 6.96973 40.8886 6.95259 40.8712 6.93545C40.844 6.90864 40.8163 6.88157 40.7882 6.85433C40.7696 6.83631 40.751 6.81838 40.7319 6.80019C40.702 6.77162 40.6712 6.74288 40.6401 6.71396C40.6222 6.69735 40.6047 6.68083 40.5864 6.66404C40.538 6.61957 40.4884 6.57483 40.4372 6.52957C40.4362 6.5286 40.4351 6.52772 40.4341 6.52676C40.409 6.50461 40.3827 6.48378 40.3565 6.46269C40.3436 6.45223 40.3312 6.44115 40.3181 6.43096C40.3166 6.42981 40.3149 6.42867 40.3133 6.42753C40.1469 6.29965 39.9603 6.18996 39.7619 6.08581C39.6285 6.01576 39.49 5.948 39.3485 5.87909C39.1175 5.7665 38.7371 5.58123 38.5281 5.42531C38.4584 5.37337 38.4078 5.32459 38.3881 5.28293C38.2773 4.99438 38.0232 4.7852 37.7187 4.73203C37.4142 4.67877 37.1043 4.78951 36.9022 5.02348C36.8591 5.0734 36.8155 5.12156 36.7713 5.16806C36.683 5.26104 36.5923 5.34718 36.4989 5.42663C36.4054 5.50608 36.3094 5.57895 36.2102 5.64522C35.6648 6.00996 35.0257 6.17827 34.2283 6.17827C34.1399 6.17827 34.0536 6.18135 33.9685 6.18618C33.9414 6.18776 33.9151 6.19031 33.8884 6.19233C33.8305 6.19673 33.773 6.20174 33.7167 6.20824C33.6871 6.21167 33.6577 6.21554 33.6285 6.21958C33.5751 6.22687 33.5224 6.23514 33.4703 6.24428C33.4427 6.24911 33.4151 6.25386 33.388 6.25922C33.3312 6.27038 33.2756 6.28295 33.2205 6.29622C33.2003 6.30105 33.1797 6.30536 33.1597 6.31055C33.0853 6.32971 33.0123 6.35054 32.941 6.37339C32.9297 6.37699 32.919 6.38112 32.9079 6.38481C32.8482 6.4045 32.7894 6.42524 32.7319 6.4473C32.7095 6.45592 32.6876 6.46506 32.6654 6.47402C32.6196 6.49248 32.5745 6.51155 32.5301 6.53142C32.5068 6.54188 32.4838 6.55251 32.4608 6.56323C32.4175 6.58362 32.375 6.60472 32.333 6.62643C32.3123 6.63715 32.2914 6.6477 32.2709 6.65868C32.2222 6.68496 32.1746 6.71203 32.1276 6.7398C32.1158 6.74684 32.1035 6.75343 32.0918 6.76055C32.0334 6.79588 31.9766 6.83235 31.9212 6.8698C31.9073 6.87911 31.8941 6.88887 31.8804 6.89836C31.8393 6.92684 31.7987 6.95566 31.7592 6.98511C31.7407 6.99882 31.7228 7.01279 31.7047 7.02677ZM31.7628 10.3396V9.74892C31.7656 9.74241 31.7685 9.73591 31.7716 9.72896C31.7738 9.72413 31.7758 9.71939 31.7781 9.71429C31.7838 9.70163 31.79 9.6881 31.7965 9.67421C31.7985 9.67008 31.8002 9.66621 31.8023 9.66199C31.8197 9.62508 31.8399 9.58438 31.8626 9.54053C31.8657 9.53473 31.8691 9.52849 31.8721 9.5226C31.8806 9.5066 31.8892 9.49043 31.8983 9.47373C31.9028 9.46556 31.9075 9.45712 31.9122 9.44877C31.9206 9.43356 31.9293 9.41818 31.9384 9.40245C31.9437 9.39331 31.949 9.38399 31.9546 9.37468C31.9639 9.35886 31.9736 9.34269 31.9834 9.32643C31.9891 9.31702 31.9947 9.3077 32.0006 9.29813C32.0114 9.28072 32.0227 9.26288 32.0342 9.24513C32.0397 9.23651 32.0451 9.22799 32.0507 9.21938C32.0665 9.19512 32.0831 9.1706 32.1001 9.14581C32.1018 9.14344 32.1033 9.14115 32.1049 9.13878C32.1236 9.11171 32.1432 9.08437 32.1634 9.05678C32.1695 9.04852 32.1759 9.04025 32.1821 9.03199C32.1965 9.01274 32.2111 8.9935 32.2262 8.97407C32.2344 8.96361 32.2428 8.95315 32.2513 8.9427C32.2653 8.92529 32.2794 8.9078 32.294 8.8904C32.3033 8.87924 32.3127 8.86816 32.3223 8.85709C32.3368 8.84013 32.3517 8.82325 32.3668 8.80638C32.3767 8.7953 32.3866 8.78414 32.3968 8.77307C32.4129 8.75558 32.4294 8.73826 32.4461 8.72086C32.4559 8.71075 32.4655 8.70056 32.4755 8.69045C32.4957 8.67006 32.5165 8.64993 32.5376 8.6298C32.5448 8.62304 32.5516 8.61609 32.5588 8.60941C32.5871 8.58296 32.6163 8.55686 32.6462 8.53119C32.6544 8.52407 32.6631 8.51722 32.6715 8.51019C32.6936 8.49164 32.716 8.47318 32.7389 8.45508C32.7508 8.44576 32.763 8.43671 32.775 8.42757C32.7953 8.41219 32.8158 8.39689 32.8368 8.38186C32.8503 8.37228 32.8639 8.36288 32.8776 8.35348C32.8983 8.33933 32.9193 8.32544 32.9405 8.31182C32.9548 8.30268 32.9691 8.29354 32.9837 8.28466C33.0057 8.27112 33.0283 8.25803 33.0511 8.24502C33.0653 8.23685 33.0795 8.22858 33.094 8.22076C33.1199 8.2067 33.1465 8.19325 33.1732 8.17998C33.1852 8.174 33.1969 8.16776 33.2091 8.16196C33.2481 8.14342 33.2878 8.12575 33.3285 8.10914C33.3366 8.1058 33.3452 8.10299 33.3533 8.09974C33.3864 8.08673 33.4198 8.07407 33.4539 8.06247C33.4691 8.05729 33.4847 8.05263 33.5002 8.04771C33.5282 8.03883 33.5564 8.03013 33.5851 8.02213C33.6026 8.01729 33.6205 8.0129 33.6383 8.00833C33.6661 8.00139 33.6941 7.99479 33.7225 7.98882C33.7411 7.98486 33.7599 7.98108 33.7789 7.97757C33.808 7.97212 33.8376 7.96737 33.8674 7.96298C33.8861 7.96025 33.9048 7.95735 33.9238 7.95498C33.9566 7.95094 33.9901 7.94795 34.0238 7.94522C34.0404 7.94391 34.0567 7.94206 34.0735 7.94101C34.1241 7.93793 34.1756 7.936 34.228 7.936C34.2282 7.936 34.2285 7.936 34.2287 7.936C35.5345 7.936 36.6204 7.58303 37.5216 6.86162C37.6055 6.92306 37.6922 6.9808 37.7805 7.03538C38.0453 7.19921 38.3238 7.33491 38.5791 7.45919C38.6447 7.49118 38.7126 7.52423 38.7794 7.55745C38.7806 7.55807 38.7819 7.55868 38.7831 7.5593C38.7838 7.55965 38.7845 7.56 38.7853 7.56035C38.9884 7.66151 39.1805 7.76408 39.2703 7.84353C39.3289 7.8953 39.3852 7.94637 39.4392 7.99664C39.4558 8.01202 39.4707 8.0267 39.4868 8.0419C39.5234 8.07653 39.5603 8.11116 39.5948 8.14491C39.6136 8.16328 39.6308 8.18095 39.649 8.19905C39.6786 8.22858 39.7089 8.25838 39.7368 8.28721C39.7581 8.309 39.7774 8.32983 39.7978 8.35119C39.8206 8.37519 39.8442 8.39962 39.866 8.423C39.8885 8.44734 39.9093 8.47064 39.9306 8.49428C39.948 8.51344 39.9661 8.53304 39.9826 8.55167C40.007 8.57927 40.0295 8.60563 40.0522 8.63209C40.0636 8.64536 40.0758 8.65925 40.0868 8.67217C40.1129 8.7031 40.1372 8.73273 40.161 8.7619C40.167 8.7692 40.1736 8.77702 40.1794 8.78432C40.2075 8.81921 40.2339 8.85278 40.2587 8.88486C40.2592 8.88557 40.2598 8.88636 40.2604 8.88706C40.4656 9.15346 40.5564 9.32054 40.5635 9.33372C40.5667 9.34014 40.5713 9.34559 40.5747 9.352C40.5923 9.38452 40.6113 9.41599 40.6324 9.44561C40.6416 9.45835 40.6518 9.46995 40.6615 9.48217C40.6796 9.50476 40.6981 9.52673 40.7181 9.54729C40.7231 9.5523 40.727 9.55828 40.732 9.5632V10.3395C40.732 12.1966 39.6144 13.8352 37.8848 14.5142C37.5475 14.6466 37.3261 14.9724 37.3271 15.3348L37.3304 16.5168C37.323 16.5268 37.3159 16.5371 37.309 16.5473L36.2475 18.1209L35.186 16.5473C35.1791 16.5371 35.172 16.5269 35.1647 16.5169L35.1679 15.3347C35.169 14.9724 34.9474 14.6466 34.6102 14.5142C32.8802 13.8353 31.7628 12.1966 31.7628 10.3396ZM43.2423 23.1847H29.2521V19.1332C29.2521 18.463 29.7974 17.9177 30.4675 17.9177H33.9897L35.5185 20.1842C35.6818 20.4264 35.955 20.5716 36.2471 20.5716C36.5393 20.5716 36.8125 20.4264 36.9758 20.1842L38.5046 17.9177H42.0268C42.697 17.9177 43.2423 18.463 43.2423 19.1332V23.1847Z" fill="url(#paint1_linear)"/>
<path d="M38.3168 43.9497C38.3054 43.8934 38.2887 43.8381 38.2667 43.7845C38.2448 43.7316 38.2176 43.6808 38.1859 43.6333C38.1534 43.5849 38.1173 43.54 38.0769 43.4996C38.0356 43.4592 37.9908 43.4223 37.9425 43.3897C37.895 43.3581 37.8441 43.3317 37.7912 43.3098C37.7385 43.2878 37.6832 43.2702 37.6269 43.2598C37.5135 43.2368 37.3967 43.2368 37.2833 43.2598C37.227 43.2702 37.1716 43.2878 37.119 43.3098C37.0661 43.3317 37.0152 43.3581 36.9669 43.3897C36.9195 43.4223 36.8738 43.4592 36.8333 43.4996C36.7929 43.54 36.756 43.5849 36.7243 43.6333C36.6927 43.6808 36.6655 43.7316 36.6435 43.7845C36.6215 43.8381 36.6048 43.8934 36.5934 43.9497C36.582 44.0059 36.5758 44.064 36.5758 44.1211C36.5758 44.1781 36.582 44.2362 36.5934 44.2925C36.6048 44.3487 36.6215 44.4041 36.6435 44.4567C36.6655 44.5104 36.6927 44.5613 36.7243 44.6088C36.756 44.6571 36.7929 44.702 36.8333 44.7424C36.8738 44.7829 36.9194 44.8198 36.9669 44.8514C37.0153 44.883 37.0662 44.9103 37.119 44.9322C37.1717 44.9542 37.227 44.9718 37.2833 44.9823C37.3404 44.9938 37.3976 44.9999 37.4546 44.9999C37.5126 44.9999 37.5698 44.9938 37.6269 44.9823C37.6832 44.9718 37.7386 44.9542 37.7912 44.9322C37.8441 44.9103 37.895 44.883 37.9425 44.8514C37.9908 44.8198 38.0357 44.7829 38.0769 44.7424C38.1173 44.702 38.1534 44.6571 38.1859 44.6088C38.2175 44.5613 38.2448 44.5104 38.2667 44.4567C38.2887 44.404 38.3055 44.3487 38.3168 44.2925C38.3283 44.2361 38.3334 44.1781 38.3334 44.1211C38.3334 44.064 38.3282 44.0059 38.3168 43.9497Z" fill="url(#paint2_linear)"/>
<path d="M44.0157 26.9517H0.984253C0.498921 26.9517 0.105347 27.3452 0.105347 27.8306V32.2559C0.105347 32.7412 0.498921 33.1348 0.984253 33.1348H18.3021L15.5276 43.2422H7.54502C7.0596 43.2422 6.66612 43.6358 6.66612 44.1211C6.66612 44.6065 7.0596 45 7.54502 45H16.1978H28.8022H34.3762C34.8615 45 35.2551 44.6065 35.2551 44.1211C35.2551 43.6358 34.8615 43.2422 34.3762 43.2422H29.4723L26.6978 33.1348H44.0157C44.501 33.1348 44.8946 32.7412 44.8946 32.2559V27.8306C44.8946 27.3452 44.501 26.9517 44.0157 26.9517ZM27.6495 43.2422H23.3789V38.1793C23.3789 37.6939 22.9853 37.3004 22.5 37.3004C22.0145 37.3004 21.6211 37.6939 21.6211 38.1793V43.2422H17.3505L20.125 33.1348H24.8749L27.6495 43.2422ZM43.1368 31.377H1.86316V28.7095H43.1368V31.377Z" fill="url(#paint3_linear)"/>
<path d="M23.3622 34.9288C23.3508 34.8724 23.3332 34.817 23.3113 34.7644C23.2893 34.7117 23.262 34.6606 23.2304 34.6124C23.1989 34.5649 23.1619 34.5192 23.1214 34.4788C23.081 34.4383 23.0362 34.4014 22.9878 34.3698C22.9404 34.3381 22.8894 34.3109 22.8367 34.2889C22.783 34.2669 22.7277 34.2502 22.6714 34.2388C22.558 34.216 22.442 34.216 22.3286 34.2388C22.2724 34.2502 22.217 34.2669 22.1643 34.2889C22.1107 34.3109 22.0598 34.3381 22.0122 34.3698C21.9638 34.4014 21.919 34.4383 21.8786 34.4788C21.8382 34.5192 21.8013 34.5648 21.7697 34.6124C21.7371 34.6607 21.7108 34.7117 21.6888 34.7644C21.6668 34.8171 21.6493 34.8724 21.6388 34.9288C21.6273 34.9858 21.6212 35.043 21.6212 35.101C21.6212 35.1581 21.6273 35.2153 21.6388 35.2723C21.6492 35.3286 21.6668 35.3839 21.6888 35.4367C21.7108 35.4894 21.7381 35.5405 21.7697 35.5887C21.8013 35.6362 21.8382 35.6819 21.8786 35.7223C21.9191 35.7628 21.9639 35.7997 22.0122 35.8313C22.0597 35.8629 22.1106 35.8902 22.1643 35.9122C22.2171 35.9341 22.2724 35.9508 22.3286 35.9623C22.3849 35.9737 22.4429 35.979 22.5 35.979C22.5571 35.979 22.6152 35.9737 22.6714 35.9623C22.7277 35.9508 22.783 35.9341 22.8367 35.9122C22.8894 35.8902 22.9404 35.8629 22.9878 35.8313C23.0362 35.7997 23.081 35.7628 23.1214 35.7223C23.1619 35.6819 23.1989 35.6362 23.2304 35.5887C23.262 35.5404 23.2893 35.4894 23.3113 35.4367C23.3332 35.3839 23.3508 35.3286 23.3614 35.2723C23.3737 35.2153 23.3789 35.1581 23.3789 35.101C23.3789 35.043 23.3737 34.9859 23.3622 34.9288Z" fill="url(#paint4_linear)"/>
</g>
<defs>
<linearGradient id="paint0_linear" x1="9.62818" y1="2.0665e-07" x2="24.8679" y2="13.4059" gradientUnits="userSpaceOnUse">
<stop stop-color="#029CB5"/>
<stop offset="1" stop-color="#3A9EF2"/>
</linearGradient>
<linearGradient id="paint1_linear" x1="37.1225" y1="2.0665e-07" x2="52.3622" y2="13.4059" gradientUnits="userSpaceOnUse">
<stop stop-color="#029CB5"/>
<stop offset="1" stop-color="#3A9EF2"/>
</linearGradient>
<linearGradient id="paint2_linear" x1="37.5425" y1="43.2426" x2="38.598" y2="44.5657" gradientUnits="userSpaceOnUse">
<stop stop-color="#029CB5"/>
<stop offset="1" stop-color="#3A9EF2"/>
</linearGradient>
<linearGradient id="paint3_linear" x1="24.7394" y1="26.9517" x2="31.2188" y2="47.1049" gradientUnits="userSpaceOnUse">
<stop stop-color="#029CB5"/>
<stop offset="1" stop-color="#3A9EF2"/>
</linearGradient>
<linearGradient id="paint4_linear" x1="22.588" y1="34.2217" x2="23.6434" y2="35.5449" gradientUnits="userSpaceOnUse">
<stop stop-color="#029CB5"/>
<stop offset="1" stop-color="#3A9EF2"/>
</linearGradient>
<clipPath id="clip0">
<rect width="45" height="45" fill="white"/>
</clipPath>
</defs>
</svg>
