<svg width="39" height="39" viewBox="0 0 39 39" fill="none" xmlns="http://www.w3.org/2000/svg">
<path d="M22.0963 27.9387C23.4656 27.0462 24.375 25.5031 24.375 23.75C24.375 20.9931 22.1319 18.75 19.375 18.75C16.6181 18.75 14.375 20.9931 14.375 23.75C14.375 25.5031 15.2844 27.0462 16.6537 27.9387C13.1581 29.0862 10.625 32.3756 10.625 36.25V38.75H28.125V36.25C28.125 32.3756 25.5919 29.0862 22.0963 27.9387ZM22.8662 35L20.3662 37.5H20.24L22.8469 29.6081C23.2944 29.8431 23.7163 30.1194 24.105 30.4363L23.8062 32.1287L21.5194 33.6531L22.8662 35ZM14.9444 32.1281L14.6456 30.4356C15.0344 30.1187 15.4562 29.8425 15.9037 29.6075L18.5106 37.5H18.3844L15.8844 35L17.2319 33.6531L14.9444 32.1281ZM15.625 23.75C15.625 21.6819 17.3069 20 19.375 20C21.4431 20 23.125 21.6819 23.125 23.75C23.125 25.8181 21.4431 27.5 19.375 27.5C17.3069 27.5 15.625 25.8181 15.625 23.75ZM21.6913 29.12L19.375 36.1319L17.0594 29.12C17.7894 28.8825 18.5669 28.75 19.375 28.75C20.1838 28.75 20.9606 28.8825 21.6913 29.12ZM11.875 36.25C11.875 34.455 12.5106 32.8062 13.5662 31.5138L13.8056 32.8719L15.2688 33.8475L14.1163 35L16.6163 37.5H11.875V36.25ZM26.875 37.5H22.1338L24.6338 35L23.4812 33.8469L24.9444 32.8713L25.1837 31.5131C26.2394 32.8063 26.875 34.455 26.875 36.25V37.5Z" fill="white"/>
<path d="M16.2499 17.4999H22.4999V9.99992H25.543L19.3749 0.748047L13.2068 9.99992H16.2499V17.4999ZM15.543 8.74992L19.3749 3.0018L23.2068 8.74992H21.2499V16.2499H17.4999V8.74992H15.543Z" fill="white"/>
<path d="M1.07812 8.57812L3.23375 19.3575L5.35187 17.2394L10.6681 22.7675L15.2669 18.1687L9.73875 12.8525L11.8569 10.7344L1.07812 8.57812ZM13.4825 18.1862L10.6862 20.9825L5.37 15.4544L4.00187 16.8219L2.67188 10.1719L9.3225 11.5019L7.955 12.87L13.4825 18.1862Z" fill="white"/>
<path d="M23.4827 18.1687L28.0814 22.7675L33.3977 17.2394L35.5158 19.3575L37.6714 8.57812L26.892 10.7337L29.0102 12.8519L23.4827 18.1687ZM36.0783 10.1719L34.7483 16.8225L33.3802 15.455L28.0639 20.9831L25.2677 18.1869L30.7958 12.8706L29.4283 11.5025L36.0783 10.1719Z" fill="white"/>
<path d="M1.875 3.75C2.90875 3.75 3.75 2.90875 3.75 1.875C3.75 0.84125 2.90875 0 1.875 0C0.84125 0 0 0.84125 0 1.875C0 2.90875 0.84125 3.75 1.875 3.75ZM1.875 1.25C2.21937 1.25 2.5 1.53062 2.5 1.875C2.5 2.21937 2.21937 2.5 1.875 2.5C1.53062 2.5 1.25 2.21937 1.25 1.875C1.25 1.53062 1.53062 1.25 1.875 1.25Z" fill="white"/>
<path d="M6.8418 7.72754L7.72568 6.84366L8.56537 7.68335L7.68149 8.56723L6.8418 7.72754Z" fill="white"/>
<path d="M3.30737 4.19189L4.19126 3.30801L5.07514 4.19189L4.19126 5.07578L3.30737 4.19189Z" fill="white"/>
<path d="M5.07495 5.95996L5.95883 5.07608L6.84272 5.95996L5.95883 6.84384L5.07495 5.95996Z" fill="white"/>
<path d="M1.875 35C0.84125 35 0 35.8412 0 36.875C0 37.9088 0.84125 38.75 1.875 38.75C2.90875 38.75 3.75 37.9088 3.75 36.875C3.75 35.8412 2.90875 35 1.875 35ZM1.875 37.5C1.53062 37.5 1.25 37.2194 1.25 36.875C1.25 36.5306 1.53062 36.25 1.875 36.25C2.21937 36.25 2.5 36.5306 2.5 36.875C2.5 37.2194 2.21937 37.5 1.875 37.5Z" fill="white"/>
<path d="M6.83936 31.02L7.67904 30.1803L8.56293 31.0642L7.72324 31.9039L6.83936 31.02Z" fill="white"/>
<path d="M3.30371 34.5552L4.18759 33.6713L5.07148 34.5552L4.18759 35.4391L3.30371 34.5552Z" fill="white"/>
<path d="M5.07178 32.7869L5.95566 31.903L6.83954 32.7869L5.95566 33.6707L5.07178 32.7869Z" fill="white"/>
<path d="M36.875 35C35.8412 35 35 35.8412 35 36.875C35 37.9088 35.8412 38.75 36.875 38.75C37.9088 38.75 38.75 37.9088 38.75 36.875C38.75 35.8412 37.9088 35 36.875 35ZM36.875 37.5C36.5306 37.5 36.25 37.2194 36.25 36.875C36.25 36.5306 36.5306 36.25 36.875 36.25C37.2194 36.25 37.5 36.5306 37.5 36.875C37.5 37.2194 37.2194 37.5 36.875 37.5Z" fill="white"/>
<path d="M33.667 34.5581L34.5509 33.6742L35.4348 34.5581L34.5509 35.442L33.667 34.5581Z" fill="white"/>
<path d="M30.1765 31.0671L31.0604 30.1833L31.9001 31.0229L31.0162 31.9068L30.1765 31.0671Z" fill="white"/>
<path d="M31.8987 32.79L32.7826 31.9062L33.6665 32.79L32.7826 33.6739L31.8987 32.79Z" fill="white"/>
<path d="M36.875 3.75C37.9088 3.75 38.75 2.90875 38.75 1.875C38.75 0.84125 37.9088 0 36.875 0C35.8412 0 35 0.84125 35 1.875C35 2.90875 35.8412 3.75 36.875 3.75ZM36.875 1.25C37.2194 1.25 37.5 1.53062 37.5 1.875C37.5 2.21937 37.2194 2.5 36.875 2.5C36.5306 2.5 36.25 2.21937 36.25 1.875C36.25 1.53062 36.5306 1.25 36.875 1.25Z" fill="white"/>
<path d="M31.9026 5.96313L32.7865 5.07925L33.6704 5.96313L32.7865 6.84702L31.9026 5.96313Z" fill="white"/>
<path d="M33.6699 4.19556L34.5538 3.31167L35.4377 4.19556L34.5538 5.07944L33.6699 4.19556Z" fill="white"/>
<path d="M30.179 7.6853L31.0186 6.84561L31.9025 7.7295L31.0628 8.56919L30.179 7.6853Z" fill="white"/>
<path d="M36.875 23.125C35.8412 23.125 35 23.9662 35 25C35 26.0338 35.8412 26.875 36.875 26.875C37.9088 26.875 38.75 26.0338 38.75 25C38.75 23.9662 37.9088 23.125 36.875 23.125ZM36.875 25.625C36.5306 25.625 36.25 25.3444 36.25 25C36.25 24.6556 36.5306 24.375 36.875 24.375C37.2194 24.375 37.5 24.6556 37.5 25C37.5 25.3444 37.2194 25.625 36.875 25.625Z" fill="white"/>
<path d="M32.5 24.375H33.75V25.625H32.5V24.375Z" fill="white"/>
<path d="M27.5 24.375H28.75V25.625H27.5V24.375Z" fill="white"/>
<path d="M30 24.375H31.25V25.625H30V24.375Z" fill="white"/>
<path d="M1.875 26.875C2.90875 26.875 3.75 26.0338 3.75 25C3.75 23.9662 2.90875 23.125 1.875 23.125C0.84125 23.125 0 23.9662 0 25C0 26.0338 0.84125 26.875 1.875 26.875ZM1.875 24.375C2.21937 24.375 2.5 24.6556 2.5 25C2.5 25.3444 2.21937 25.625 1.875 25.625C1.53062 25.625 1.25 25.3444 1.25 25C1.25 24.6556 1.53062 24.375 1.875 24.375Z" fill="white"/>
<path d="M7.5 24.375H8.75V25.625H7.5V24.375Z" fill="white"/>
<path d="M5 24.375H6.25V25.625H5V24.375Z" fill="white"/>
<path d="M10 24.375H11.25V25.625H10V24.375Z" fill="white"/>
</svg>
