<svg width="45" height="45" viewBox="0 0 45 45" fill="none" xmlns="http://www.w3.org/2000/svg">
<path d="M44.7843 35.2057L41.6286 32.0086C41.5595 31.9386 41.4773 31.8829 41.3869 31.845C41.2965 31.807 41.1996 31.7875 41.1016 31.7875C41.0034 31.7881 40.9063 31.8083 40.8158 31.8471C40.7254 31.8858 40.6435 31.9423 40.5747 32.0132L40.0492 32.5442L39.6682 32.1591L38.6679 28.1104C38.6351 27.9782 38.5678 27.8574 38.4729 27.7606L30.6892 19.8875V10.5316C30.6892 10.3951 30.6524 10.2612 30.5828 10.1442L28.4564 6.56196V6.01808H29.2007C29.3981 6.01808 29.5874 5.93882 29.727 5.79774C29.8666 5.65667 29.945 5.46533 29.945 5.26582V0.752259C29.945 0.552748 29.8666 0.361408 29.727 0.220332C29.5874 0.0792556 29.3981 0 29.2007 0H17.2923C17.0949 0 16.9056 0.0792556 16.766 0.220332C16.6264 0.361408 16.548 0.552748 16.548 0.752259V5.26582C16.548 5.46533 16.6264 5.65667 16.766 5.79774C16.9056 5.93882 17.0949 6.01808 17.2923 6.01808V6.4589L14.5333 9.24753C14.3937 9.38857 14.3153 9.57988 14.3152 9.77937V18.8065C14.3165 19.1132 14.3804 19.4164 14.5028 19.6972L6.53159 27.7584C6.43668 27.8551 6.36931 27.976 6.33659 28.1082L5.33703 32.1583L4.95373 32.545L4.42827 32.0139C4.2887 31.8729 4.09943 31.7937 3.90207 31.7937C3.70472 31.7937 3.51544 31.8729 3.37587 32.0139L0.217913 35.2057C0.0783836 35.3468 0 35.5381 0 35.7376C0 35.9371 0.0783836 36.1284 0.217913 36.2694L8.63863 44.7797C8.7782 44.9208 8.96748 45 9.16483 45C9.36219 45 9.55146 44.9208 9.69104 44.7797L12.8482 41.5879C12.9871 41.4469 13.065 41.2561 13.065 41.0572C13.065 40.8583 12.9871 40.6674 12.8482 40.5265L13.1556 40.2158H17.0616C17.259 40.2157 17.4482 40.1365 17.5878 39.9954L22.5022 35.0222L27.4144 39.9954C27.554 40.1365 27.7433 40.2157 27.9406 40.2158H31.8451L32.154 40.528C32.0156 40.6689 31.9379 40.8594 31.9379 41.0579C31.9379 41.2565 32.0156 41.447 32.154 41.5879L35.3097 44.7775C35.4493 44.9185 35.6385 44.9977 35.8359 44.9977C36.0333 44.9977 36.2225 44.9185 36.3621 44.7775L44.7798 36.2694C44.92 36.129 44.9992 35.938 45 35.7385C45.0008 35.5391 44.9232 35.3474 44.7843 35.2057ZM18.0366 1.50452H28.4564V4.51356H18.0366V1.50452ZM18.5628 7.30218C18.7024 7.16114 18.7808 6.96983 18.7809 6.77033V6.01808H26.9679V6.77033C26.9679 6.90684 27.0047 7.04076 27.0743 7.15775L29.2007 10.74V18.7313C28.7169 18.5694 28.194 18.5726 27.7121 18.7403V17.302H26.2236V19.634L25.8418 19.2481C25.5391 18.9402 25.1547 18.7275 24.7351 18.6357V17.302H23.2465V18.8336C22.806 19.0545 22.4554 19.4237 22.2551 19.8777L22.1576 19.7792C22.037 19.6588 21.9028 19.553 21.758 19.464V17.302H20.2694V19.1465C19.789 19.2119 19.3429 19.434 18.9989 19.7792C18.871 19.9113 18.76 20.0592 18.6685 20.2192C18.6303 20.0895 18.5805 19.9636 18.5196 19.8431C18.6896 19.5245 18.7793 19.1685 18.7809 18.8065V14.2929H17.2923V18.7313C16.8106 18.5597 16.2854 18.5597 15.8038 18.7313V10.0908L18.5628 7.30218ZM9.16483 43.1842L1.79652 35.7368L3.90207 33.6094L11.2704 41.0568L9.16483 43.1842ZM16.7527 38.7113H12.849C12.6516 38.7113 12.4623 38.7906 12.3228 38.9317L11.7981 39.4583L6.00688 33.6087L6.53531 33.0746C6.63056 32.978 6.69819 32.8571 6.73106 32.7248L7.73062 28.6769L15.9921 20.3155C16.1302 20.1752 16.317 20.0948 16.5128 20.0914C16.7086 20.088 16.898 20.1619 17.0407 20.2975C17.0527 20.3118 17.0638 20.326 17.0765 20.3396C17.2057 20.4816 17.2754 20.6687 17.271 20.8616C17.2666 21.0545 17.1883 21.2382 17.0527 21.3739L13.3685 25.0976L14.4209 26.1613L18.1051 22.4376C18.2332 22.3043 18.3447 22.1554 18.437 21.9946C18.5367 22.3635 18.7287 22.7003 18.9945 22.9725L19.0875 23.0665C18.8574 23.1757 18.6473 23.3235 18.466 23.5036C18.1123 23.8643 17.8901 24.3355 17.8356 24.8404L17.5134 25.1661L15.474 27.2273L16.5264 28.291L18.3001 26.4983C18.3515 26.5675 18.4069 26.6336 18.466 26.6962L19.3405 27.5771L17.5803 29.3562L18.6327 30.4199L20.3944 28.6393L20.4927 28.7378C20.5104 28.7606 20.5295 28.7822 20.55 28.8025L21.4431 29.7052L17.5803 33.6057L18.6327 34.6694L20.5679 32.7135C20.6735 33.05 20.8563 33.3565 21.1015 33.6079L21.4461 33.957L16.7527 38.7113ZM28.2517 38.7113L22.1576 32.5427C22.0883 32.4729 22.0333 32.3899 21.9958 32.2985C21.9583 32.2071 21.939 32.1091 21.939 32.0101C21.939 31.9112 21.9583 31.8132 21.9958 31.7218C22.0333 31.6304 22.0883 31.5474 22.1576 31.4775C22.2508 31.3801 22.3709 31.3135 22.5022 31.2865C22.563 31.2865 22.6235 31.2789 22.6823 31.2639C22.8725 31.2608 23.0564 31.3325 23.1951 31.464L26.3643 34.6671L27.4167 33.6034L19.5125 25.622C19.3829 25.4901 19.3085 25.3128 19.3048 25.127C19.3004 25.0282 19.3154 24.9294 19.3487 24.8365C19.3821 24.7435 19.4334 24.6581 19.4994 24.5851C19.5655 24.5122 19.6452 24.4531 19.7339 24.4114C19.8226 24.3696 19.9186 24.3459 20.0163 24.3416C20.0442 24.3454 20.0723 24.3477 20.1005 24.3484C20.2784 24.3622 20.4459 24.4386 20.5738 24.5643L26.3643 30.4169L27.4167 29.3532L20.0484 21.9058C19.979 21.8359 19.9241 21.7529 19.8865 21.6615C19.849 21.5701 19.8297 21.4721 19.8297 21.3732C19.8297 21.2742 19.849 21.1763 19.8865 21.0849C19.9241 20.9935 19.979 20.9105 20.0484 20.8406C20.1181 20.7707 20.201 20.7155 20.2921 20.6785C20.3832 20.6414 20.4808 20.6231 20.579 20.6247C20.655 20.6251 20.7303 20.6378 20.8023 20.6623C20.915 20.695 21.0175 20.7564 21.1 20.8406L28.4683 28.288L29.5207 27.2243L23.7288 21.3642C23.5988 21.232 23.5244 21.0541 23.5211 20.8677C23.5174 20.765 23.5344 20.6627 23.5713 20.5669C23.6082 20.4712 23.664 20.3841 23.7355 20.311C23.8557 20.1949 24.0086 20.1195 24.1731 20.0951C24.2013 20.0894 24.23 20.0869 24.2587 20.0876C24.3575 20.0879 24.4553 20.1081 24.5464 20.1468C24.6374 20.1855 24.72 20.2421 24.7894 20.3133L30.5798 26.1658L31.6322 25.1021L27.9481 21.3785C27.8788 21.3086 27.8238 21.2256 27.7863 21.1342C27.7487 21.0428 27.7294 20.9448 27.7294 20.8459C27.7294 20.7469 27.7487 20.6489 27.7863 20.5575C27.8238 20.4662 27.8788 20.3831 27.9481 20.3133C28.0898 20.1757 28.2786 20.0989 28.475 20.0989C28.6715 20.0989 28.8603 20.1757 29.002 20.3133L37.2738 28.6769L38.2734 32.7233C38.3063 32.8556 38.3739 32.9764 38.4691 33.0731L38.9961 33.6057L33.2049 39.4605L32.6839 38.9339C32.5444 38.7929 32.3551 38.7136 32.1577 38.7135L28.2517 38.7113ZM35.8433 43.1842L33.7363 41.0546L41.1046 33.6072L43.2064 35.7376L35.8433 43.1842Z" fill="#A686D0"/>
<path d="M13.3103 11.7059L12.3427 10.5625C10.3265 12.308 8.78261 14.5431 7.85624 17.0576C6.92988 19.5721 6.65147 22.2835 7.04722 24.9367L8.51865 24.711C8.41344 24.0016 8.3607 23.2852 8.36086 22.5678C8.36019 20.5034 8.80231 18.4633 9.65675 16.5881C10.5112 14.713 11.7577 13.0473 13.3103 11.7059Z" fill="#A686D0"/>
<path d="M23.2832 38.3463L23.2088 36.842C22.7399 36.8654 22.262 36.8654 21.7946 36.842L21.7202 38.3463C21.9785 38.3584 22.2412 38.3651 22.501 38.3651C22.7607 38.3651 23.0234 38.3584 23.2832 38.3463Z" fill="#A686D0"/>
<path d="M38.0579 24.1476C38.1092 23.6278 38.1323 23.0944 38.1323 22.5678C38.133 20.286 37.6444 18.0312 36.7 15.9587C35.7556 13.8861 34.3779 12.0451 32.6619 10.5625L31.6943 11.7059C33.247 13.0473 34.4934 14.713 35.3479 16.5881C36.2023 18.4633 36.6444 20.5034 36.6438 22.5678C36.6438 23.0463 36.6199 23.5277 36.5738 23.9971L38.0579 24.1476Z" fill="#A686D0"/>
<path d="M5.75599 26.1724C4.94976 22.3248 5.46228 18.3144 7.20935 14.8001C8.95643 11.2858 11.8342 8.47661 15.3698 6.83402L14.749 5.46716C10.9063 7.2525 7.77863 10.3057 5.87968 14.1252C3.98074 17.9447 3.42348 22.3034 4.29945 26.4854L5.75599 26.1724Z" fill="#A686D0"/>
<path d="M19.649 39.6305L19.4019 41.1139C21.4547 41.461 23.5503 41.461 25.6031 41.1139L25.356 39.6305C23.4666 39.9479 21.5383 39.9479 19.649 39.6305Z" fill="#A686D0"/>
<path d="M39.6205 22.5677C39.6209 23.7791 39.4962 24.9872 39.2483 26.1724L40.7049 26.4854C41.5189 22.5989 41.0966 18.5519 39.4983 14.9226C37.9 11.2932 35.2075 8.26749 31.8056 6.27771L31.0613 7.58061C33.6597 9.10449 35.8174 11.2903 37.3192 13.92C38.821 16.5496 39.6145 19.5313 39.6205 22.5677Z" fill="#A686D0"/>
</svg>
