<svg width="45" height="45" viewBox="0 0 45 45" fill="none" xmlns="http://www.w3.org/2000/svg">
<path d="M22.5 0C10.1417 0 0 10.1417 0 22.5C0 34.8583 10.1417 45 22.5 45C34.8583 45 45 34.8583 45 22.5C45 10.1417 34.8583 0 22.5 0ZM19.8633 39.5031C16.4554 38.9754 13.3857 37.3625 10.9531 35.1387L19.8633 26.2285V39.5031ZM19.8633 18.7715L7.63242 31.0024C6.19515 28.4949 5.27344 25.5974 5.27344 22.5C5.27344 13.9336 11.653 6.76819 19.8633 5.49694V18.7715ZM25.1367 39.5031V26.2285L34.0469 35.1387C31.6143 37.3625 28.5446 38.9754 25.1367 39.5031ZM37.3676 31.0024L25.1367 18.7715V5.49694C33.347 6.76819 39.7266 13.9336 39.7266 22.5C39.7266 25.5974 38.8049 28.4949 37.3676 31.0024Z" fill="#FCA823"/>
</svg>
