<svg width="45" height="45" viewBox="0 0 45 45" fill="none" xmlns="http://www.w3.org/2000/svg">
<g clip-path="url(#clip0)">
<path d="M29.2186 26.0778H29.1847C28.9151 26.0668 28.6452 26.1028 28.3881 26.185V24.8352C28.387 24.0647 27.9939 23.3476 27.3451 22.9324C26.6963 22.5167 25.8807 22.46 25.1805 22.7813C24.8455 21.904 24.0043 21.3245 23.0652 21.3245H23.0295C22.4339 21.3255 21.8632 21.5648 21.4448 21.9886C21.0263 22.4125 20.7945 22.9859 20.801 23.5815V23.6829C20.5399 23.589 20.265 23.5398 19.9875 23.538C18.7388 23.5387 17.7255 24.5478 17.7194 25.7965L17.7094 33.5482C16.6043 32.3513 14.7539 32.2338 13.5063 33.2811L13.0564 33.6285C12.7703 33.8496 12.6889 34.2466 12.865 34.5627L17.2916 42.4879C18.1629 44.0434 19.8079 45.0046 21.5904 45H26.5556C29.2675 45.0032 31.4696 42.8097 31.4771 40.0977C31.4818 35.8121 31.4857 31.0376 31.4789 28.3056C31.4753 27.7104 31.235 27.1409 30.8108 26.7227C30.387 26.3049 29.8139 26.0728 29.2186 26.0778ZM30.0145 40.0962C30.0088 42.0012 28.4609 43.5417 26.5556 43.5374H21.5904C20.3382 43.5424 19.1816 42.8686 18.5689 41.7766L14.4472 34.392C15.1035 33.8403 16.0801 33.9128 16.6478 34.5552L17.8865 35.9649C18.0875 36.1934 18.4086 36.2734 18.6931 36.1666C18.9774 36.0595 19.1663 35.7878 19.167 35.4839L19.1745 25.7975C19.1741 25.3637 19.5205 25.0095 19.954 24.9995C20.3875 24.9895 20.7495 25.3276 20.7692 25.7608C20.7692 26.7288 20.7692 27.7811 20.7699 28.7841C20.7702 31.0897 20.7706 33.0808 20.7699 33.2722C20.7681 33.6764 21.0945 34.0049 21.4983 34.0063C21.9022 34.0078 22.2307 33.6818 22.2325 33.2779C22.2332 33.0829 22.2325 31.0905 22.2325 28.7834C22.2325 28.066 22.2475 27.323 22.2475 26.6035C22.2475 26.5927 22.2635 26.582 22.2635 26.571V25.7983C22.2635 25.7768 22.2478 25.7558 22.2471 25.7347C22.2471 24.932 22.2392 24.19 22.2392 23.583C22.2378 23.3723 22.3207 23.1702 22.4688 23.0206C22.617 22.8713 22.8188 22.787 23.0295 22.787H23.0652C23.2701 22.7863 23.4662 22.8702 23.6065 23.0191C23.7504 23.1705 23.8264 23.3737 23.8175 23.5822V33.275C23.8175 33.6789 24.145 34.0063 24.5488 34.0063C24.9527 34.0063 25.2801 33.6789 25.2801 33.275V24.8352C25.2801 24.3807 25.6486 24.0125 26.1028 24.0125C26.557 24.0125 26.9255 24.3807 26.9255 24.8352V33.275C26.9255 33.6789 27.2529 34.0063 27.6568 34.0063C28.0606 34.0063 28.3881 33.6789 28.3881 33.275V28.2999C28.3881 27.86 28.7444 27.5404 29.1847 27.5404H29.2186C29.4268 27.5347 29.6289 27.6133 29.7789 27.7579C29.9288 27.9025 30.0142 28.101 30.0163 28.3096C30.0231 31.039 30.0192 35.8121 30.0145 40.0962Z" fill="#3A9EF2"/>
<path d="M13.124 21.2403C13.3169 21.0475 13.4733 20.8215 13.5854 20.5729L14.5395 21.5278C15.0851 22.0723 15.8699 22.3015 16.6227 22.1362C17.3754 21.9712 17.9924 21.4342 18.2598 20.7115C19.1168 21.0964 20.1227 20.9125 20.7876 20.2487L20.8126 20.2237C21.6935 19.3407 21.6935 17.9109 20.8126 17.0275L20.7415 16.9568C21.4164 16.6498 21.8977 16.0317 22.0309 15.3022C22.1637 14.573 21.9309 13.8246 21.4078 13.2993L15.9314 7.81394C17.5589 7.88 18.9508 6.65416 19.0911 5.03161L19.1625 4.46815C19.2082 4.10965 18.9847 3.7715 18.6369 3.67294L9.89251 1.18877C8.17534 0.701725 6.32926 1.18163 5.067 2.44318L1.55589 5.9543C-0.36089 7.87607 -0.362676 10.9866 1.55232 12.9105C4.58531 15.9499 7.98252 19.3528 9.90787 21.2685C10.7916 22.1451 12.2178 22.1434 13.0994 21.2646L13.124 21.2403ZM12.0903 20.2055L12.0657 20.2301C11.7547 20.5404 11.2515 20.5412 10.9395 20.2316C9.01589 18.3177 5.61976 14.9158 2.58748 11.8775C1.24166 10.5252 1.24309 8.3392 2.58998 6.98838L6.10109 3.47727C6.98842 2.59065 8.28568 2.25357 9.49259 2.59565L17.6335 4.90842C17.5607 5.76219 16.8205 6.40242 15.9649 6.35136L14.0935 6.23174C13.79 6.21246 13.5058 6.38279 13.3804 6.66023C13.2551 6.93732 13.3144 7.26297 13.5293 7.47829L20.3734 14.3331C20.6808 14.6391 20.6869 15.135 20.3873 15.4489C20.0877 15.7628 19.5925 15.7796 19.2722 15.4868C18.5773 14.7923 17.8203 14.0356 17.1011 13.3168C15.4875 11.7039 14.0939 10.311 13.9596 10.176C13.6754 9.88926 13.2122 9.88747 12.9255 10.1721C12.6388 10.4563 12.637 10.9194 12.9216 11.2062C13.0576 11.3433 14.4524 12.7373 16.0671 14.3513L17.6414 15.9249C17.6489 15.9331 17.6564 15.941 17.6642 15.9488L18.2102 16.4951C18.2252 16.5101 18.2406 16.5248 18.2559 16.5394C18.8237 17.1068 19.3493 17.6324 19.7785 18.062C20.0895 18.3737 20.0891 18.8786 19.7778 19.19L19.7528 19.215C19.4411 19.526 18.9365 19.526 18.6248 19.215L17.741 18.3312L17.7385 18.3291L11.7707 12.3609C11.4836 12.0838 11.0277 12.0878 10.7456 12.3699C10.4635 12.6519 10.4595 13.1083 10.7366 13.395L16.7066 19.3642C17.0183 19.677 17.0176 20.183 16.7048 20.4947C16.3923 20.8068 15.886 20.8061 15.5743 20.4933L9.60614 14.5259C9.32012 14.2431 8.8595 14.2445 8.57491 14.5287C8.29068 14.8133 8.28925 15.2739 8.57169 15.56L11.0202 18.0077L11.0252 18.0127L12.0914 19.0793C12.4013 19.391 12.4006 19.8945 12.0903 20.2055Z" fill="#3A9EF2"/>
<path d="M40.0088 1.43821C38.0866 -0.478566 34.9765 -0.480352 33.0523 1.43464C30.0128 4.46799 26.6096 7.8652 24.6946 9.79019C23.8176 10.6743 23.8197 12.1005 24.6988 12.9824L24.7228 13.0064C24.9152 13.1992 25.1413 13.3556 25.3894 13.4677L24.435 14.4225C23.8915 14.9685 23.663 15.753 23.8276 16.5053C23.9922 17.2577 24.5278 17.8747 25.2495 18.1436C24.8656 19.0006 25.0502 20.0054 25.7136 20.6699L25.739 20.6953C26.622 21.5765 28.0518 21.5765 28.9352 20.6953L29.007 20.6235C29.3133 21.2987 29.9314 21.7808 30.6606 21.914C31.3901 22.0468 32.1381 21.8143 32.6634 21.2909L38.1488 15.8137C38.0831 17.4412 39.3082 18.8328 40.9311 18.9734L41.4946 19.0452C41.8531 19.0906 42.1909 18.867 42.2898 18.5196L44.7736 9.77448C45.2603 8.05766 44.7804 6.21159 43.5192 4.94933L40.0088 1.43821ZM43.3671 9.37491L41.0543 17.5162C40.2002 17.4437 39.5596 16.7028 39.6114 15.8473L39.7306 13.9758C39.7503 13.6723 39.5796 13.3884 39.3025 13.2627C39.0254 13.1374 38.6994 13.1967 38.4841 13.4116L31.6297 20.2561C31.3229 20.5614 30.8287 20.5664 30.5156 20.2675C30.2024 19.9686 30.1849 19.4744 30.476 19.1541L32.5866 17.0424C34.1617 15.4663 35.6496 13.978 35.7867 13.8419C35.9753 13.6584 36.051 13.3881 35.9845 13.1331C35.9185 12.8785 35.7207 12.6793 35.4664 12.6111C35.2122 12.5429 34.9412 12.6164 34.7566 12.8039C34.6173 12.9417 33.1969 14.3629 31.5518 16.0087L30.0371 17.5241C30.0293 17.5312 30.0214 17.5387 30.0139 17.5462L29.4676 18.0925C29.4526 18.1075 29.4379 18.1225 29.4237 18.1375C28.8559 18.7053 28.3303 19.2316 27.9007 19.6608C27.589 19.9718 27.0845 19.9718 26.7731 19.6608L26.7474 19.6355C26.436 19.3237 26.436 18.8188 26.7474 18.5075L29.2883 15.9665L33.6014 11.6531C33.8871 11.3677 33.8871 10.9046 33.6014 10.619C33.3161 10.3333 32.853 10.3333 32.5673 10.619L26.5996 16.5871C26.2871 16.8992 25.7811 16.8992 25.4687 16.5871C25.1566 16.2747 25.1566 15.7683 25.4687 15.4563L28.9848 11.9401L31.4368 9.48846C31.6232 9.30386 31.6968 9.03391 31.6297 8.78038C31.5622 8.52686 31.364 8.32868 31.1105 8.2612C30.857 8.19407 30.587 8.26762 30.4028 8.45402L26.8845 11.9723C26.5728 12.2833 26.0682 12.2833 25.7565 11.9723L25.7326 11.9484C25.4223 11.637 25.4216 11.1339 25.7308 10.8218C27.6444 8.89858 31.0466 5.50244 34.0849 2.4698C35.4372 1.12399 37.6232 1.12541 38.9743 2.4723L42.4855 5.98342C43.3721 6.87075 43.7091 8.16836 43.3671 9.37491Z" fill="#3A9EF2"/>
</g>
<defs>
<clipPath id="clip0">
<rect width="45" height="45" fill="white"/>
</clipPath>
</defs>
</svg>
