<svg width="45" height="45" viewBox="0 0 45 45" fill="none" xmlns="http://www.w3.org/2000/svg">
<path d="M17.4279 20.5942C22.7332 20.5942 27.0341 16.2936 27.0341 10.9881C27.0341 5.68283 22.7332 1.38196 17.4279 1.38196C12.1226 1.38196 7.82178 5.68283 7.82178 10.9881C7.82689 16.2917 12.1246 20.5891 17.4279 20.5942ZM17.4279 3.19953C21.7296 3.19953 25.2165 6.68694 25.2165 10.9881C25.2165 15.2898 21.7296 18.7767 17.4279 18.7767C13.1265 18.7767 9.63964 15.2898 9.63964 10.9881C9.64447 6.68865 13.1285 3.20465 17.4279 3.19953Z" fill="#FCA823"/>
<path d="M42.3931 25.9655L34.559 21.7942C34.2891 21.647 33.9624 21.6504 33.6956 21.803L26.525 25.7291C23.8985 23.7752 20.7537 22.7574 17.4098 22.7574C13.2473 22.7665 9.38487 24.3843 6.52198 27.3288C3.62273 30.3005 2.03217 34.363 2.04155 38.7707C2.04297 39.2722 2.44899 39.6782 2.95019 39.6796L28.2335 39.6341C29.422 41.1099 30.95 42.276 32.6866 43.0332L33.741 43.4966C33.8555 43.5477 33.9797 43.5725 34.1047 43.5693C34.2292 43.5671 34.3525 43.5426 34.4681 43.4966L35.6586 42.9786C40.0328 41.1434 42.8778 36.8619 42.8747 32.1181V26.7741C42.8749 26.4366 42.69 26.126 42.3931 25.9655ZM3.8864 37.8529C4.07705 34.2811 5.46758 31.0188 7.83069 28.592C10.3478 26.0019 13.7559 24.575 17.4186 24.575H17.4459C20.4543 24.575 23.2717 25.5203 25.6073 27.3106V32.2272C25.6087 34.1791 26.0957 36.0998 27.0248 37.8163L3.8864 37.8529ZM41.0571 32.1181C41.0588 36.1345 38.6465 39.7583 34.9406 41.3065H34.9315L34.1047 41.6608L33.4137 41.3608C29.7791 39.7728 27.4288 36.1848 27.4248 32.2184V27.3015L34.1408 23.6209L41.0571 27.3106V32.1181Z" fill="#FCA823"/>
<path d="M31.6506 31.6364C31.3244 31.2551 30.7508 31.2105 30.3692 31.5367C29.9879 31.8629 29.9433 32.4366 30.2695 32.8179L32.3322 35.2261C32.5056 35.4276 32.7576 35.5435 33.023 35.5444C33.2312 35.5461 33.4335 35.4756 33.5955 35.3443L38.3941 31.4458C38.7831 31.127 38.8399 30.5533 38.5211 30.1641C38.2026 29.7751 37.629 29.7183 37.24 30.0371L33.1321 33.3816L31.6506 31.6364Z" fill="#FCA823"/>
</svg>
