<svg width="45" height="38" viewBox="0 0 45 38" fill="none" xmlns="http://www.w3.org/2000/svg">
<path d="M45 8.02889C45 7.02054 44.1747 6.16962 43.0558 5.91635C43.1757 5.66643 43.2422 5.39432 43.2422 5.1093C43.2422 4.10094 42.4169 3.25002 41.298 2.99675C41.4178 2.74683 41.4844 2.47472 41.4844 2.1897C41.4844 0.982299 40.3015 0 38.8477 0H29.373C27.4047 0 25.4161 0.38962 23.6186 1.12813L22.8198 1.4598H13.1836C12.8405 1.4598 12.5127 1.51513 12.2118 1.61461C11.9068 0.685376 10.8822 0 9.66797 0C8.45376 0 7.42913 0.685376 7.12415 1.61461C6.82321 1.51513 6.49547 1.4598 6.15234 1.4598C4.93813 1.4598 3.91351 2.14517 3.60853 3.07441C3.30759 2.97492 2.97984 2.9196 2.63672 2.9196C1.18283 2.9196 0 3.9019 0 5.1093V12.9776C0 16.0542 1.59398 18.0649 1.75781 18.4198V26.4224C1.75781 26.7073 1.82443 26.9795 1.94423 27.2294C0.825293 27.4827 0 28.3336 0 29.342C0 30.3503 0.825293 31.2012 1.94423 31.4545C1.82443 31.7044 1.75781 31.9766 1.75781 32.2616C1.75781 33.2699 2.58311 34.1208 3.70204 34.3741C3.58225 34.624 3.51562 34.8962 3.51562 35.1812C3.51562 36.3885 4.69846 37.3708 6.15234 37.3708H8.27042C8.75584 37.3708 9.14933 37.0441 9.14933 36.6409C9.14933 36.2378 8.75584 35.911 8.27042 35.911H6.15234C5.66772 35.911 5.27344 35.5836 5.27344 35.1812C5.27344 34.7787 5.66772 34.4513 6.15234 34.4513H7.91016C8.39558 34.4513 8.78906 34.1245 8.78906 33.7214C8.78906 33.3182 8.39558 32.9915 7.91016 32.9915C6.68057 32.9915 5.62412 32.9915 4.39453 32.9915C3.9099 32.9915 3.51562 32.664 3.51562 32.2616C3.51562 31.8591 3.9099 31.5317 4.39453 31.5317H7.91016C8.39558 31.5317 8.78906 31.2049 8.78906 30.8018C8.78906 30.3986 8.39558 30.0719 7.91016 30.0719C7.11035 30.0719 4.02293 30.0719 2.63672 30.0719C2.15209 30.0719 1.75781 29.7444 1.75781 29.342C1.75781 28.9395 2.15209 28.6121 2.63672 28.6121H7.91016C8.39558 28.6121 8.78906 28.2853 8.78906 27.8822C8.78906 27.479 8.39558 27.1523 7.91016 27.1523H4.39453C3.9099 27.1523 3.51562 26.8248 3.51562 26.4224C3.51562 26.0199 3.9099 25.6925 4.39453 25.6925H13.1836C13.669 25.6925 14.0625 25.3657 14.0625 24.9626V24.2327H16.2773C18.3786 24.2327 20.2592 25.196 21.1852 26.7467C21.3337 26.9951 21.6388 27.1523 21.9727 27.1523H29.1797V33.7214C29.1797 33.9773 29.2333 34.2228 29.3309 34.4513H23.7305C23.594 34.4513 23.4594 34.4776 23.3374 34.5283L22.3563 34.9357C20.8033 35.5738 19.0841 35.911 17.3848 35.911H16.1633C15.6778 35.911 15.2844 36.2378 15.2844 36.6409C15.2844 37.0441 15.6778 37.3708 16.1633 37.3708H17.3848C19.3531 37.3708 21.3417 36.9812 23.1391 36.2427L23.938 35.911H31.8164C32.1595 35.911 32.4873 35.8557 32.7882 35.7562C33.0933 36.6855 34.1178 37.3708 35.332 37.3708C36.5462 37.3708 37.5709 36.6855 37.8759 35.7562C38.1769 35.8557 38.5045 35.911 38.8477 35.911C40.0619 35.911 41.0865 35.2257 41.3915 34.2964C41.6925 34.3959 42.0202 34.4513 42.3633 34.4513C43.8172 34.4513 45 33.469 45 32.2616V23.5028C45 23.3918 44.9693 23.2871 44.9161 23.193C44.7449 21.96 44.3133 20.7419 43.6416 19.6144L43.2422 18.9511V10.9485C43.2422 10.6635 43.1756 10.3914 43.0558 10.1414C44.1748 9.88817 45 9.03732 45 8.02889ZM12.3047 24.2327H4.39453C4.08639 24.2327 3.79072 24.2772 3.51562 24.3582V18.2475C3.51562 18.1342 3.4839 18.0225 3.42281 17.9211C3.22304 17.4973 1.75781 15.7081 1.75781 12.9776V5.1093C1.75781 4.70683 2.15209 4.3794 2.63672 4.3794C3.12135 4.3794 3.51562 4.70683 3.51562 5.1093V6.56909C3.51562 6.97222 3.90911 7.29899 4.39453 7.29899C4.87995 7.29899 5.27344 6.97222 5.27344 6.56909V3.6495C5.27344 3.24703 5.66772 2.9196 6.15234 2.9196C6.63697 2.9196 7.03125 3.24703 7.03125 3.6495V6.56909C7.03125 6.97222 7.42474 7.29899 7.91016 7.29899C8.39558 7.29899 8.78906 6.97222 8.78906 6.56909C8.78906 5.90489 8.78906 3.3409 8.78906 2.1897C8.78906 1.78723 9.18334 1.4598 9.66797 1.4598C10.1526 1.4598 10.5469 1.78723 10.5469 2.1897V6.56909C10.5469 6.97222 10.9404 7.29899 11.4258 7.29899C11.9112 7.29899 12.3047 6.97222 12.3047 6.56909V3.6495C12.3047 3.24703 12.699 2.9196 13.1836 2.9196C13.6682 2.9196 14.0625 3.24703 14.0625 3.6495V10.9485C14.0625 11.3516 14.456 11.6784 14.9414 11.6784H15.8203V13.5177C15.8203 15.2363 14.632 16.8362 12.7931 17.5936C12.4939 17.7168 12.3047 17.9702 12.3047 18.2475V24.2327ZM16.2773 22.7729H14.0625V18.6808C16.2445 17.6039 17.5781 15.6653 17.5781 13.5177V11.6784H22.5057C23.8024 13.4904 26.1366 14.598 28.7227 14.598H30.9375V18.6901C28.7555 19.767 27.4219 21.7055 27.4219 23.8531V25.6925H22.4944C21.1976 23.8805 18.8634 22.7729 16.2773 22.7729ZM43.2422 32.2616C43.2422 32.664 42.8479 32.9915 42.3633 32.9915C41.8787 32.9915 41.4844 32.664 41.4844 32.2616V30.8018C41.4844 30.3986 41.0908 30.0719 40.6055 30.0719C40.1201 30.0719 39.7266 30.3986 39.7266 30.8018V33.7214C39.7266 34.1238 39.3323 34.4513 38.8477 34.4513C38.363 34.4513 37.9688 34.1238 37.9688 33.7214V30.8018C37.9688 30.3986 37.5752 30.0719 37.0898 30.0719C36.6045 30.0719 36.2109 30.3986 36.2109 30.8018V35.1812C36.2109 35.5836 35.8167 35.911 35.332 35.911C34.8474 35.911 34.4531 35.5836 34.4531 35.1812V30.8018C34.4531 30.3986 34.0596 30.0719 33.5742 30.0719C33.0889 30.0719 32.6953 30.3986 32.6953 30.8018V33.7214C32.6953 34.1238 32.301 34.4513 31.8164 34.4513C31.3318 34.4513 30.9375 34.1238 30.9375 33.7214V26.4224C30.9375 26.0192 30.5439 25.6925 30.0586 25.6925H29.1797V23.8531C29.1797 22.1081 30.3397 20.5463 32.2069 19.7773C32.5061 19.6541 32.6953 19.4007 32.6953 19.1234V13.1382H40.6055C40.9136 13.1382 41.2093 13.0937 41.4844 13.0126V19.1234C41.4844 19.2366 41.5161 19.3484 41.5772 19.4498L42.0677 20.2646C42.836 21.5543 43.2422 22.982 43.2422 24.3932V32.2616ZM42.3633 8.75879H37.0898C36.6045 8.75879 36.2109 9.08557 36.2109 9.48869C36.2109 9.89182 36.6045 10.2186 37.0898 10.2186H40.6055C41.0901 10.2186 41.4844 10.546 41.4844 10.9485C41.4844 11.351 41.0901 11.6784 40.6055 11.6784H31.8164C31.3311 11.6784 30.9375 12.0052 30.9375 12.4083V13.1382H28.7227C26.6532 13.1382 24.7267 12.1514 23.8148 10.6242C23.6664 10.3758 23.3613 10.2186 23.0273 10.2186H15.8203V3.6495C15.8203 3.39359 15.7667 3.14806 15.6691 2.9196H23.0273C23.1638 2.9196 23.2984 2.89325 23.4205 2.84252C23.9302 2.67691 26.0851 1.4598 29.373 1.4598H38.8477C39.3323 1.4598 39.7266 1.78723 39.7266 2.1897C39.7266 2.59216 39.3323 2.9196 38.8477 2.9196H37.0898C36.6045 2.9196 36.2109 3.24637 36.2109 3.6495C36.2109 4.05262 36.6045 4.3794 37.0898 4.3794H40.6055C41.0901 4.3794 41.4844 4.70683 41.4844 5.1093C41.4844 5.51176 41.0901 5.8392 40.6055 5.8392H37.0898C36.6045 5.8392 36.2109 6.16597 36.2109 6.56909C36.2109 6.97222 36.6045 7.29899 37.0898 7.29899H42.3633C42.8479 7.29899 43.2422 7.62643 43.2422 8.02889C43.2422 8.43136 42.8479 8.75879 42.3633 8.75879Z" fill="#4E4F9F"/>
</svg>
