<svg width="45" height="39" viewBox="0 0 45 39" fill="none" xmlns="http://www.w3.org/2000/svg">
<path d="M45 5.28442H26.4551V0.832031H18.5449V5.28442H0V9.51915L7.52563 10.4077L2.72461 21.5167V23.8969C2.72461 25.708 4.49886 27.1814 6.67969 27.1814H11.9531C14.134 27.1814 15.9082 25.708 15.9082 23.8969V21.5167L11.2997 10.8534L18.5449 11.7088V31.6338H10.6348V38.2029H34.3652V31.6338H26.4551V11.7088L33.6844 10.8552L29.0918 21.5172V23.8969C29.0918 25.708 30.866 27.1814 33.0469 27.1814H38.3203C40.5011 27.1814 42.2754 25.708 42.2754 23.8969V21.5172L37.4892 10.406L45 9.51915V5.28442ZM9.31641 12.7463L12.7159 20.6123H5.91688L9.31641 12.7463ZM11.9531 24.9917H6.67969C5.95274 24.9917 5.36133 24.5006 5.36133 23.8969V22.802H13.2715V23.8969C13.2715 24.5006 12.6801 24.9917 11.9531 24.9917ZM35.6836 12.7153L39.0852 20.6123H32.282L35.6836 12.7153ZM38.3203 24.9917H33.0469C32.3199 24.9917 31.7285 24.5006 31.7285 23.8969V22.802H39.6387V23.8969C39.6387 24.5006 39.0473 24.9917 38.3203 24.9917ZM21.1816 3.02173H23.8184V5.28442H21.1816V3.02173ZM2.63672 7.61878V7.47412H8.79354L8.43513 8.30343L2.63672 7.61878ZM31.7285 36.0132H13.2715V33.8235H31.7285V36.0132ZM21.1816 31.6338V11.8535H23.8184V31.6338H21.1816ZM25.0435 9.66381H19.9564L10.2924 8.52276L9.83927 7.47412H35.1409L34.6882 8.52503L25.0435 9.66381ZM42.3633 7.61878L36.5826 8.30131L36.2263 7.47412H42.3633V7.61878Z" fill="#52DFCE"/>
</svg>
