<svg width="40" height="33" viewBox="0 0 40 33" fill="none" xmlns="http://www.w3.org/2000/svg">
<path d="M36.5273 16.2344L39.7656 11.9166C40.032 11.5616 40.0748 11.0865 39.8763 10.6895C39.6778 10.2924 39.272 10.0416 38.8281 10.0416H32.5521C32.1833 10.0416 31.8359 10.2153 31.6146 10.5104L31.4905 10.6759C29.1895 4.36664 23.1184 0 16.2344 0C7.28273 0 0 7.28274 0 16.2344C0 25.186 7.28273 32.4688 16.2344 32.4688C23.1184 32.4688 29.1895 28.1021 31.4905 21.7929L31.6146 21.9584C31.8359 22.2534 32.1833 22.4271 32.5521 22.4271H38.8281C39.272 22.4271 39.6777 22.1763 39.8763 21.7793C40.0748 21.3823 40.032 20.9072 39.7656 20.5521L36.5273 16.2344ZM29.7463 19.4674C28.2662 25.6734 22.6647 30.125 16.2344 30.125C8.57508 30.125 2.34375 23.8937 2.34375 16.2344C2.34375 8.57508 8.57508 2.34375 16.2344 2.34375C22.6647 2.34375 28.2662 6.79539 29.7464 13.0013L28.482 14.6873L28.2005 15.0625H27.3869C26.7991 9.42805 22.0219 5.02086 16.2344 5.02086C10.0512 5.02086 5.02086 10.0513 5.02086 16.2344C5.02086 22.4175 10.0512 27.4479 16.2344 27.4479C22.0218 27.4479 26.7991 23.0407 27.3869 17.4063H28.2005L28.482 17.7815L29.7463 19.4674ZM22.3145 15.0625C21.765 12.2065 19.2484 10.0416 16.2344 10.0416C12.8197 10.0416 10.0416 12.8197 10.0416 16.2344C10.0416 19.6491 12.8197 22.4271 16.2344 22.4271C19.2484 22.4271 21.765 20.2623 22.3145 17.4063H25.0266C24.4514 21.7452 20.728 25.1041 16.2344 25.1041C11.3435 25.1041 7.36461 21.1252 7.36461 16.2344C7.36461 11.3436 11.3435 7.36461 16.2344 7.36461C20.728 7.36461 24.4514 10.7236 25.0266 15.0625H22.3145ZM16.2344 17.4063H19.9003C19.4034 18.9572 17.9481 20.0834 16.2344 20.0834C14.112 20.0834 12.3854 18.3567 12.3854 16.2344C12.3854 14.112 14.112 12.3854 16.2344 12.3854C17.9482 12.3854 19.4034 13.5116 19.9003 15.0625H16.2344C15.5872 15.0625 15.0625 15.5872 15.0625 16.2344C15.0625 16.8816 15.5872 17.4063 16.2344 17.4063ZM34.125 16.9375L36.4844 20.0834H33.138L30.2513 16.2344L33.138 12.3854H36.4844L34.125 15.5313C33.8125 15.948 33.8125 16.5209 34.125 16.9375Z" fill="white"/>
</svg>
