<svg width="45" height="38" viewBox="0 0 45 38" fill="none" xmlns="http://www.w3.org/2000/svg">
<path d="M39.7266 8.83184V4.37943H34.3652C34.3652 1.96461 31.9996 0 29.0918 0C26.184 0 23.8184 1.96461 23.8184 4.37943H19.8633C8.93145 4.37943 0 11.7976 0 20.8753C0 29.9538 8.9325 37.3711 19.8633 37.3711C30.7951 37.3711 39.7266 29.9529 39.7266 20.8753V17.5907C42.6343 17.5907 45 15.6261 45 13.2113C45 10.7965 42.6343 8.83184 39.7266 8.83184ZM18.5449 6.61067V11.6692C20.1345 11.2284 20.4543 11.0216 21.1816 11.0216C22.6355 11.0216 23.8184 12.0039 23.8184 13.2113C23.8184 14.4187 22.6355 15.401 21.1816 15.401C20.4533 15.401 20.1299 15.1929 18.5449 14.7533V19.7804H15.9082C15.9082 17.3656 13.5425 15.401 10.6348 15.401C7.72699 15.401 5.36133 17.3656 5.36133 19.7804H2.68673C3.32921 12.763 10.0949 7.14423 18.5449 6.61067ZM2.68673 21.9701H8.77808C8.2466 20.6488 7.99805 20.3844 7.99805 19.7804C7.99805 18.573 9.18088 17.5907 10.6348 17.5907C12.0887 17.5907 13.2715 18.573 13.2715 19.7804C13.2715 20.3844 13.0226 20.6495 12.4915 21.9701H18.5449V24.1598C15.6371 24.1598 13.2715 26.1244 13.2715 28.5393C13.2715 30.9541 15.6371 32.9187 18.5449 32.9187V35.1399C10.0949 34.6063 3.32921 28.9876 2.68673 21.9701ZM21.1816 35.1399V30.0813C19.5921 30.5221 19.2722 30.729 18.5449 30.729C17.091 30.729 15.9082 29.7467 15.9082 28.5393C15.9082 27.3318 17.091 26.3495 18.5449 26.3495C19.2733 26.3495 19.5967 26.5576 21.1816 26.9972V21.9701H23.8184C23.8184 24.3849 26.184 26.3495 29.0918 26.3495C31.9996 26.3495 34.3652 24.3842 34.3652 21.9694L37.0398 21.9701C36.3974 28.9876 29.6316 34.6063 21.1816 35.1399ZM39.7266 15.401C39.1287 15.401 38.6757 15.1751 37.0898 14.7233V19.7804H30.9485C31.4799 21.1017 31.7285 21.3661 31.7285 21.9701C31.7285 23.1775 30.5457 24.1598 29.0918 24.1598C27.6379 24.1598 26.4551 23.1775 26.4551 21.9701C26.4551 21.3661 26.704 21.101 27.2351 19.7804H21.1816V17.5907C24.0894 17.5907 26.4551 15.6261 26.4551 13.2113C26.4551 10.7965 24.0894 8.83184 21.1816 8.83184V6.56914H27.2711C26.7332 5.26684 26.4551 4.87561 26.4551 4.37943C26.4551 3.17202 27.6379 2.18971 29.0918 2.18971C30.5457 2.18971 31.7285 3.17202 31.7285 4.37943C31.7285 4.87605 31.4562 5.25283 30.9125 6.56914H37.0898V11.6993C38.658 11.2524 39.1291 11.0216 39.7266 11.0216C41.1805 11.0216 42.3633 12.0039 42.3633 13.2113C42.3633 14.4187 41.1805 15.401 39.7266 15.401Z" fill="#EC3049"/>
</svg>
